<?xml version="1.0" encoding="utf-8"?>
<!-- Generator: Adobe Illustrator 23.0.3, SVG Export Plug-In . SVG Version: 6.00 Build 0)  -->
<svg version="1.1" id="Layer_1" xmlns="http://www.w3.org/2000/svg" xmlns:xlink="http://www.w3.org/1999/xlink" x="0px" y="0px"
	 viewBox="0 0 191 101.3" style="enable-background:new 0 0 191 101.3;" xml:space="preserve">
<style type="text/css">
	.st0{fill:#00D8FF;}
	.st1{fill:#4d4f54;}
</style>
<g>
	<path class="st0" d="M3.5,39.7L3.6,59C3.7,68.9,9,77.9,17.5,82.8l16.8,9.6c8.5,4.9,19,4.8,27.5-0.2l16.7-9.8
		c8.5-5,13.7-14.1,13.6-23.9l-0.1-19.4c-0.1-9.8-5.4-18.9-13.9-23.8L61.4,5.8C52.8,0.9,42.3,1,33.9,6l-16.7,9.8
		C8.7,20.7,3.5,29.8,3.5,39.7"/>
	<g>
		<path class="st1" d="M57.5,68.2c0.8,1.1,1.6,2,2,3.1c0.9,2.2,0.7,4.4-0.9,6.2c-1.8,2.1-5.2,2.4-7.4,0.7c-1.6-1.3-2.2-3-2.2-5
			c0-1.4,0.6-2.6,1.1-3.9c0.5-1.2,1.1-2.3,1.4-3.5c0.4-1.5,0.5-3,0.4-4.6c-0.1-1.6-0.3-3.1-0.5-4.7c-0.4-2.2-1.2-4.3-2.8-6
			c-1.5-1.6-3.3-2.6-5.2-3.4c-0.9-0.4-1.7-0.8-2.6-1.1c-2-0.8-4.1-1.1-6.3-0.9c-1.4,0.1-2.7,0.4-4.1,0.4c-1.7,0-3.2-0.4-4.4-1.5
			c-1.9-1.6-2.6-4.7-1.1-7c1.7-2.7,5.1-3.4,7.8-1.7c0.9,0.6,1.7,1.3,2.3,2.2c0.6,0.8,1.1,1.5,1.7,2.3c0.9,1.3,2,2.4,3.3,3.3
			c0.9,0.6,1.9,1.1,3,1.5c1,0.4,2,0.9,3,1.3c1.8,0.7,3.6,1,5.5,0.8c1.6-0.2,3.2-0.7,4.6-1.5c1.2-0.7,2.3-1.6,3.5-2.4
			c1.2-0.9,2.3-1.8,3.2-3.1c0.7-0.9,1.2-1.9,1.7-3c0.6-1.4,1.1-2.9,2.1-4.1c1-1.3,2.2-2.2,3.8-2.5c1.9-0.4,3.7,0.2,5,1.6
			c1.2,1.3,1.7,2.9,1.4,4.6c-0.3,1.8-1.4,3.2-3,4.1c-1.5,0.8-3.2,1-4.9,1.2c-1.7,0.2-3.5,0.4-5.1,1.2c-0.6,0.3-1.1,0.6-1.6,0.9
			c-1.2,0.7-2.2,1.5-3.3,2.3c-1.4,1.1-2.7,2.2-3.6,3.7c-0.7,1.2-1.2,2.4-1.5,3.8c-0.2,1.5-0.2,3,0,4.5c0.1,1.2,0.2,2.4,0.5,3.6
			c0.3,1.6,0.9,3.2,1.8,4.6C56.6,66.9,57.1,67.6,57.5,68.2"/>
		<g>
			<path class="st1" d="M62.5,56.4c1.3,0.2,2.5,0.3,3.6,0.8c2.2,1,3.6,2.6,3.8,5c0.2,2.8-1.9,5.4-4.7,5.7c-2.1,0.2-3.7-0.5-5.1-2
				c-0.9-1-1.5-2.3-1.9-3.5c-0.5-1.2-0.9-2.4-1.5-3.5c-0.7-1.4-1.7-2.5-2.9-3.5c-1.2-1-2.4-2-3.7-2.9c-1.8-1.3-3.9-2.2-6.2-2.3
				c-2.2-0.1-4.2,0.5-6.1,1.3c-0.9,0.4-1.7,0.7-2.6,1c-2,0.9-3.7,2.2-5.1,3.9c-0.9,1.1-1.7,2.2-2.6,3.2c-1.2,1.2-2.6,1.9-4.2,2.1
				c-2.5,0.2-5.1-1.5-5.7-4.2c-0.7-3.1,1.2-6,4.3-6.7c1-0.2,2.1-0.3,3.2-0.1c0.9,0.1,1.9,0.3,2.8,0.4c1.6,0.2,3.1,0.2,4.7,0
				c1.1-0.2,2.1-0.6,3.2-1c1-0.4,2-0.8,3-1.2c1.7-0.8,3.3-1.8,4.5-3.3c1-1.3,1.8-2.7,2.2-4.3c0.3-1.4,0.5-2.8,0.7-4.2
				c0.2-1.5,0.3-3,0.1-4.5c-0.2-1.2-0.5-2.2-0.9-3.3c-0.5-1.5-1.2-2.8-1.5-4.4c-0.2-1.6,0-3.1,0.9-4.5c1.1-1.6,2.7-2.5,4.7-2.4
				c1.8,0,3.2,0.9,4.3,2.3c1.1,1.5,1.3,3.2,0.8,5c-0.5,1.7-1.6,3-2.7,4.3c-1.1,1.3-2.2,2.8-2.8,4.4c-0.2,0.6-0.4,1.2-0.5,1.8
				c-0.3,1.3-0.5,2.6-0.7,4c-0.2,1.7-0.4,3.5,0.1,5.2c0.4,1.3,0.9,2.6,1.7,3.7c0.9,1.2,2,2.2,3.1,3.2c0.9,0.8,1.9,1.6,2.9,2.3
				c1.4,1,2.9,1.6,4.5,2C60.9,56.2,61.7,56.3,62.5,56.4"/>
		</g>
	</g>
	<g>
		<path class="st0" d="M123.3,41.9L123.3,41.9l-8.4,21.3h-3.7v-0.1l3.2-7.3L108.2,42v-0.1h3.8l3,7.3c0.4,0.9,0.7,1.7,1,2.8
			c0.3-1.1,0.6-1.9,0.9-2.8l2.8-7.3H123.3z"/>
		<path class="st0" d="M126.3,34.4h13.6v3.5H130v6.3h8.8v3.4H130v8.6h-3.8V34.4z"/>
		<path class="st0" d="M142.6,36.9c0-1.2,0.8-2.1,2.2-2.1c1.3,0,2.2,0.9,2.2,2.1c0,1.2-0.9,2-2.2,2C143.4,38.9,142.6,38,142.6,36.9z
			 M143,41.9h3.5v14.3H143V41.9z"/>
		<path class="st0" d="M150.6,33.1h3.5l0,23h-3.5V33.1z"/>
		<path class="st0" d="M171.1,48.5c0,0.5-0.1,1.1-0.1,1.7h-10.2c0.4,2.3,2.2,3.5,4.5,3.5c1.6,0,2.8-0.5,3.8-1.3l1.5,2.2
			c-1.6,1.3-3.4,2-5.6,2c-4.6,0-7.7-3.1-7.7-7.6c0-4.2,3-7.5,7.4-7.5C168.7,41.5,171.1,44.2,171.1,48.5z M160.8,47.8h7
			c-0.1-2.3-1.4-3.5-3.3-3.5C162.7,44.4,161.2,45.6,160.8,47.8z"/>
		<path class="st0" d="M173.2,54.9l1.4-2.5c1.2,0.8,2.6,1.2,3.9,1.2c1.3,0,2.1-0.6,2.1-1.5c0-1.1-1.3-1.6-2.8-2.1
			c-2.3-0.9-4-2-4-4.4c0-2.6,2.3-4,5.1-4c1.6,0,3.1,0.4,4.7,1.3l-1.2,2.3c-1.1-0.5-2.2-0.8-3.2-0.8c-1.1,0-2,0.3-2,1.2
			c0,0.9,1.1,1.5,2.6,2c2.5,0.9,4.3,2.1,4.3,4.5c0,2.7-2.1,4.3-5.3,4.3C176.6,56.5,174.8,56,173.2,54.9z"/>
	</g>
	<g>
		<g>
			<path class="st0" d="M110.5,73.1h-1.3v-0.7h1.3v-1.7c0-1.2,0.6-2.2,1.9-2.2c0.6,0,1.1,0.2,1.6,0.5l-0.4,0.6
				c-0.3-0.2-0.6-0.4-1.1-0.4c-0.7,0-1.2,0.5-1.2,1.4v1.7h2v0.7h-2v5.3h-0.8V73.1z"/>
			<path class="st0" d="M113.8,75.4c0-1.8,1.3-3.2,3.1-3.2c1.8,0,3.1,1.3,3.1,3.2c0,1.8-1.3,3.2-3.1,3.2
				C115.1,78.6,113.8,77.3,113.8,75.4z M119.2,75.4c0-1.4-0.9-2.4-2.3-2.4c-1.3,0-2.3,1-2.3,2.4c0,1.4,0.9,2.4,2.3,2.4
				C118.3,77.8,119.2,76.8,119.2,75.4z"/>
			<path class="st0" d="M125.2,72.5l-0.2,0.7c-0.2-0.1-0.5-0.1-0.8-0.1c-1,0-1.6,0.7-1.6,1.9v3.5h-0.8v-6h0.6l0.2,0.9
				c0.3-0.6,0.9-1,1.8-1C124.6,72.3,125,72.4,125.2,72.5z"/>
			<path class="st0" d="M134.4,74.7v3.7h-0.8v-3.7c0-1-0.4-1.7-1.4-1.7c-1.3,0-2,1.1-2,2.4v3h-0.8v-9.7h0.8v3.9c0,0.3,0,0.6,0,0.9
				c0.4-0.7,1.1-1.2,2.1-1.2C133.7,72.3,134.4,73.2,134.4,74.7z"/>
			<path class="st0" d="M136.8,76.7v-3.6l-1.2-0.1v-0.7h1.2v-2h0.8v2h2.1v0.7h-2.1v3.6c0,0.8,0.3,1,0.8,1c0.4,0,0.8-0.1,1.2-0.4
				l0.4,0.6c-0.4,0.3-1,0.6-1.6,0.6C137.4,78.5,136.8,77.9,136.8,76.7z"/>
			<path class="st0" d="M150,74.6v3.8h-0.8v-3.8c0-1-0.5-1.5-1.3-1.5c-1.2,0-1.8,1.1-1.8,2.2v3.1h-0.8v-3.8c0-0.8-0.4-1.5-1.3-1.5
				c-1.2,0-1.8,1.1-1.8,2.2v3.1h-0.8v-6h0.6l0.2,1c0.4-0.7,1.1-1.2,2-1.2c0.9,0,1.6,0.4,1.9,1.2c0.4-0.7,1.1-1.2,2.1-1.2
				C149.2,72.3,150,73.2,150,74.6z"/>
			<path class="st0" d="M151.9,68.7h0.8l0,9.7h-0.8L151.9,68.7z"/>
		</g>
	</g>
</g>
</svg>
