<svg xmlns="http://www.w3.org/2000/svg" viewBox="0 0 268.09 93.76"><title>logo_demo_test1</title><path d="M26.86,59.45,27,78.81a27.53,27.53,0,0,0,13.91,23.76l16.82,9.58A27.55,27.55,0,0,0,85.22,112l16.71-9.78a27.53,27.53,0,0,0,13.62-23.92l-.12-19.36a27.5,27.5,0,0,0-13.9-23.75L84.71,25.6a27.5,27.5,0,0,0-27.52.16L40.48,35.54A27.5,27.5,0,0,0,26.86,59.45" transform="translate(-26.86 -21.99)" style="fill:#242265"/><path d="M87,80.89a14.48,14.48,0,0,1,3.49,1.3,5.75,5.75,0,0,1,3,5.51,5.38,5.38,0,0,1-5.43,5A5.73,5.73,0,0,1,83.32,90a10.49,10.49,0,0,1-1.45-3.78,30.23,30.23,0,0,0-1-3.65,12.47,12.47,0,0,0-2.42-3.89,45,45,0,0,0-3.23-3.39,11.46,11.46,0,0,0-5.84-3.07,14.45,14.45,0,0,0-6.24.43c-.91.23-1.82.43-2.73.68a13.13,13.13,0,0,0-5.55,3.14c-1,.93-1.95,1.94-3,2.77a6.53,6.53,0,0,1-4.47,1.47,5.5,5.5,0,0,1-5.1-4.9,5.58,5.58,0,0,1,5.19-6,8.14,8.14,0,0,1,3.14.33l2.7.79a14.28,14.28,0,0,0,4.63.6A19.17,19.17,0,0,0,61.21,71c1.06-.25,2.12-.51,3.16-.8a11.21,11.21,0,0,0,4.86-2.71,11.38,11.38,0,0,0,2.74-4c.53-1.31.9-2.68,1.3-4A15.31,15.31,0,0,0,74,55a15.81,15.81,0,0,0-.46-3.42A22.79,22.79,0,0,1,72.68,47a6.08,6.08,0,0,1,1.51-4.32,5.44,5.44,0,0,1,8.89,1.07,5.59,5.59,0,0,1,.09,5A12,12,0,0,1,80,52.69a14.88,14.88,0,0,0-3.35,4,18.64,18.64,0,0,0-.75,1.72,34.37,34.37,0,0,0-1.21,3.85,13.38,13.38,0,0,0-.59,5.15,11.52,11.52,0,0,0,1.16,3.92,16.33,16.33,0,0,0,2.66,3.58c.83.89,1.66,1.79,2.56,2.62a13,13,0,0,0,4.21,2.58c.8.31,1.64.51,2.34.76" transform="translate(-26.86 -21.99)" style="fill:#00d8ff"/><path d="M89.81,70.54a14.52,14.52,0,0,1,3.64-.82,5.79,5.79,0,0,1,5.56,3,5.39,5.39,0,0,1-1.83,7.16,5.75,5.75,0,0,1-5.47.34,10.59,10.59,0,0,1-3.27-2.37,28.24,28.24,0,0,0-2.82-2.54,12.7,12.7,0,0,0-4.14-2c-1.51-.42-3-.8-4.56-1.07a11.34,11.34,0,0,0-6.56.59,14.51,14.51,0,0,0-5,3.76c-.64.69-1.29,1.35-1.92,2a13.3,13.3,0,0,0-3,5.65c-.33,1.34-.58,2.69-1,4A6.49,6.49,0,0,1,56.49,92a5.5,5.5,0,0,1-7-1.34,5.58,5.58,0,0,1,1.07-7.9,8.22,8.22,0,0,1,2.81-1.43l2.7-.8a14.26,14.26,0,0,0,4.21-2,18.71,18.71,0,0,0,2.46-2.25c.75-.78,1.49-1.58,2.21-2.39a11.25,11.25,0,0,0,2.61-4.91,11.54,11.54,0,0,0,.12-4.86c-.28-1.39-.7-2.74-1.11-4.09a14.92,14.92,0,0,0-1.79-4.09,16.06,16.06,0,0,0-2.24-2.63,22.61,22.61,0,0,1-3.2-3.36,6,6,0,0,1-1.09-4.44,5.44,5.44,0,0,1,8-3.94,5.57,5.57,0,0,1,2.81,4.18,12,12,0,0,1-.58,5A14.72,14.72,0,0,0,68,55.89a16.23,16.23,0,0,0,.31,1.85,33,33,0,0,0,1.08,3.89,13.36,13.36,0,0,0,2.3,4.64,11.5,11.5,0,0,0,3.11,2.66,16.32,16.32,0,0,0,4.18,1.56c1.18.29,2.37.6,3.57.81a13,13,0,0,0,4.94-.13c.84-.18,1.65-.46,2.37-.63" transform="translate(-26.86 -21.99)" style="fill:#00d8ff"/><path d="M131.72,49.78l1.38-2.46A7.29,7.29,0,0,0,137,48.5c1.28,0,2.11-.57,2.11-1.47,0-1.06-1.34-1.57-2.75-2.11-2.27-.87-4-2.05-4-4.39,0-2.62,2.34-4,5-4a9,9,0,0,1,4.68,1.28l-1.22,2.34a7.24,7.24,0,0,0-3.17-.83c-1.09,0-2,.32-2,1.21s1.05,1.48,2.59,2c2.5.93,4.29,2.11,4.29,4.48,0,2.66-2.15,4.32-5.28,4.32A9.91,9.91,0,0,1,131.72,49.78Z" transform="translate(-26.86 -21.99)" style="fill:#242265"/><path d="M160.58,43.83c0,4.45-2.84,7.55-6.81,7.55a6.52,6.52,0,0,1-4.8-2c.06,1,.06,2.14.06,3.39v5.28h-3.49V36.76h2.37l.67,2.17a6.34,6.34,0,0,1,5.19-2.52C157.7,36.41,160.58,39.54,160.58,43.83Zm-3.55.1c0-2.66-1.6-4.45-4-4.45a4,4,0,0,0-4.12,4.38c0,2.69,1.69,4.48,4.12,4.48S157,46.52,157,43.93Z" transform="translate(-26.86 -21.99)" style="fill:#242265"/><path d="M175.43,41.81V51H173.1l-.64-2.14a5.91,5.91,0,0,1-5.09,2.43c-2.62,0-4.48-1.47-4.48-4,0-3.27,2.88-5.06,7.23-5.06.74,0,1.28,0,1.79.07v-.64c0-1.48-1.09-2.21-2.91-2.21a10.73,10.73,0,0,0-4.45,1.15l-1-2.66a14.38,14.38,0,0,1,6-1.47C173.19,36.5,175.43,38.36,175.43,41.81ZM172,44.6a12.71,12.71,0,0,0-1.67-.1c-2.52,0-4,.9-4,2.47,0,1.12.77,1.72,2,1.72C170.44,48.69,171.94,47.19,172,44.6Z" transform="translate(-26.86 -21.99)" style="fill:#242265"/><path d="M178.44,43.89A7.24,7.24,0,0,1,186,36.37a7.7,7.7,0,0,1,5.31,1.92l-1.69,2.34a4.78,4.78,0,0,0-3.36-1.22A4.2,4.2,0,0,0,182,43.89a4.15,4.15,0,0,0,4.19,4.48,4.91,4.91,0,0,0,3.65-1.47l1.76,2.34a7.75,7.75,0,0,1-5.76,2.21A7.22,7.22,0,0,1,178.44,43.89Z" transform="translate(-26.86 -21.99)" style="fill:#242265"/><path d="M207.05,43.38c0,.51-.07,1.09-.13,1.67H196.68a4.28,4.28,0,0,0,4.54,3.52A5.35,5.35,0,0,0,205,47.22l1.47,2.24a8.43,8.43,0,0,1-5.57,2,7.3,7.3,0,0,1-7.71-7.59,7.24,7.24,0,0,1,7.36-7.49C204.58,36.37,207.05,39.09,207.05,43.38Zm-10.34-.7h7c-.09-2.27-1.44-3.46-3.26-3.46A3.8,3.8,0,0,0,196.71,42.68Z" transform="translate(-26.86 -21.99)" style="fill:#242265"/><path d="M209.83,42.26h9v3h-9Z" transform="translate(-26.86 -21.99)" style="fill:#242265"/><path d="M223.66,46.68v-7l-2.53-.19V36.76h2.53l.09-4.58h3.39v4.58h4.42v3h-4.42v6.6c0,1.4.64,1.82,1.57,1.82a4.25,4.25,0,0,0,2.4-.74L232.23,50a7.82,7.82,0,0,1-4.32,1.31C225.35,51.35,223.66,49.88,223.66,46.68Z" transform="translate(-26.86 -21.99)" style="fill:#242265"/><path d="M234.12,31.7a2.18,2.18,0,1,1,2.18,2.08A2,2,0,0,1,234.12,31.7Zm.42,5.06H238V51h-3.48Z" transform="translate(-26.86 -21.99)" style="fill:#242265"/><path d="M263.56,41.85V51h-3.49v-8.8c0-1.73-.9-2.72-2.3-2.72-2.21,0-3.2,2-3.2,3.87V51h-3.46V42.2c0-1.47-.77-2.69-2.33-2.69-2.18,0-3.17,2-3.17,3.87V51h-3.49V36.76h2.37l.7,2.27a5,5,0,0,1,4.55-2.66A4.45,4.45,0,0,1,254,38.9a5.19,5.19,0,0,1,4.64-2.53C261.8,36.37,263.56,38.49,263.56,41.85Z" transform="translate(-26.86 -21.99)" style="fill:#242265"/><path d="M280.42,43.38a14.53,14.53,0,0,1-.13,1.67H270.06a4.27,4.27,0,0,0,4.54,3.52,5.39,5.39,0,0,0,3.78-1.35l1.47,2.24a8.45,8.45,0,0,1-5.57,2,7.29,7.29,0,0,1-7.71-7.59,7.24,7.24,0,0,1,7.36-7.49C278,36.37,280.42,39.09,280.42,43.38Zm-10.33-.7h7c-.1-2.27-1.44-3.46-3.27-3.46A3.79,3.79,0,0,0,270.09,42.68Z" transform="translate(-26.86 -21.99)" style="fill:#242265"/><path d="M147,66.76V81.61c0,4.57-3.11,6.84-7.49,6.84a9.74,9.74,0,0,1-6.46-2.17l1.34-2.63a7.41,7.41,0,0,0,4.83,1.67c2.59,0,4.26-1.22,4.26-3.65,0-.74,0-1.54.06-2.34a6.39,6.39,0,0,1-4.73,2c-4.07,0-6.85-3.08-6.85-7.43s2.78-7.45,6.78-7.45A6.33,6.33,0,0,1,144,68.84l.7-2.08Zm-3.36,7.1c0-2.53-1.44-4.41-4.1-4.41s-4,1.82-4,4.41,1.54,4.42,4,4.42C142.22,78.28,143.66,76.39,143.66,73.86Z" transform="translate(-26.86 -21.99)" style="fill:#242265"/><path d="M160.74,67.05,159.85,70a5.43,5.43,0,0,0-1.86-.32,3.25,3.25,0,0,0-3.39,3.58V81h-3.49V66.76h2.37l.67,2.11a4.38,4.38,0,0,1,4.13-2.43A4.77,4.77,0,0,1,160.74,67.05Z" transform="translate(-26.86 -21.99)" style="fill:#242265"/><path d="M174.57,71.81V81h-2.34l-.64-2.14a5.89,5.89,0,0,1-5.09,2.43c-2.62,0-4.48-1.47-4.48-4,0-3.27,2.88-5.06,7.24-5.06.73,0,1.28,0,1.79.07v-.64c0-1.48-1.09-2.21-2.91-2.21a10.73,10.73,0,0,0-4.45,1.15l-1-2.66a14.38,14.38,0,0,1,6-1.47C172.33,66.5,174.57,68.36,174.57,71.81Zm-3.43,2.79a12.45,12.45,0,0,0-1.66-.1c-2.53,0-4,.9-4,2.47,0,1.12.77,1.72,2.05,1.72C169.58,78.69,171.08,77.19,171.14,74.6Z" transform="translate(-26.86 -21.99)" style="fill:#242265"/><path d="M193.51,73.83c0,4.45-2.85,7.55-6.81,7.55a6.5,6.5,0,0,1-4.8-2c.06,1,.06,2.14.06,3.39v5.28h-3.49V66.76h2.37l.67,2.17a6.34,6.34,0,0,1,5.19-2.52C190.63,66.41,193.51,69.54,193.51,73.83Zm-3.55.1c0-2.66-1.6-4.45-4-4.45a4,4,0,0,0-4.13,4.38c0,2.69,1.7,4.48,4.13,4.48S190,76.52,190,73.93Z" transform="translate(-26.86 -21.99)" style="fill:#242265"/><path d="M209.67,72.07v9h-3.49V72.36c0-1.73-.73-2.85-2.46-2.85-2.27,0-3.46,1.89-3.46,4.16V81h-3.48V58h3.48V66.5c0,.67,0,1.31,0,2.18a4.89,4.89,0,0,1,4.39-2.31C208,66.37,209.67,68.55,209.67,72.07Z" transform="translate(-26.86 -21.99)" style="fill:#242265"/><path d="M235,58V81h-2.4l-.6-2.14a6.18,6.18,0,0,1-5.16,2.49c-4.09,0-6.87-3.07-6.87-7.58,0-4.29,2.88-7.39,6.87-7.39a6.29,6.29,0,0,1,4.77,2c-.06-1.31-.09-2.52-.09-4.09V58Zm-3.36,15.9c0-2.62-1.63-4.41-4.09-4.41s-4.06,1.79-4.06,4.41,1.63,4.45,4.06,4.45S231.65,76.55,231.65,73.89Z" transform="translate(-26.86 -21.99)" style="fill:#242265"/><path d="M252.07,73.38a14.53,14.53,0,0,1-.13,1.67H241.7a4.28,4.28,0,0,0,4.55,3.52A5.34,5.34,0,0,0,250,77.22l1.47,2.24a8.42,8.42,0,0,1-5.56,2c-4.58,0-7.72-3.11-7.72-7.59a7.24,7.24,0,0,1,7.36-7.49C249.61,66.37,252.07,69.09,252.07,73.38Zm-10.33-.7h7c-.09-2.27-1.44-3.46-3.26-3.46A3.78,3.78,0,0,0,241.74,72.68Z" transform="translate(-26.86 -21.99)" style="fill:#242265"/><path d="M276.61,71.85V81h-3.48v-8.8c0-1.73-.9-2.72-2.31-2.72-2.21,0-3.2,1.95-3.2,3.87V81h-3.45V72.2c0-1.47-.77-2.69-2.34-2.69-2.18,0-3.17,1.95-3.17,3.87V81h-3.49V66.76h2.37l.71,2.27a5,5,0,0,1,4.54-2.66,4.47,4.47,0,0,1,4.29,2.53,5.18,5.18,0,0,1,4.64-2.53C274.85,66.37,276.61,68.49,276.61,71.85Z" transform="translate(-26.86 -21.99)" style="fill:#242265"/><path d="M279.62,73.89a7.67,7.67,0,1,1,7.65,7.56A7.28,7.28,0,0,1,279.62,73.89Zm11.78,0c0-2.62-1.67-4.44-4.13-4.44a4.46,4.46,0,0,0,0,8.89C289.73,78.34,291.4,76.52,291.4,73.89Z" transform="translate(-26.86 -21.99)" style="fill:#242265"/><path d="M139,99.25a3,3,0,0,1-3,3.17,2.8,2.8,0,0,1-2.37-1.19l-.12,1h-.64V92.53h.83v3.13c0,.57,0,1.13,0,1.66A2.73,2.73,0,0,1,136,96.15,3,3,0,0,1,139,99.25Zm-.83,0a2.2,2.2,0,0,0-2.25-2.36,2.36,2.36,0,0,0,0,4.71A2.2,2.2,0,0,0,138.17,99.28Z" transform="translate(-26.86 -21.99)" style="fill:#242265"/><path d="M145.37,96.27v6h-.64l-.16-1a2.25,2.25,0,0,1-2,1.16c-1.5,0-2.19-1-2.19-2.46V96.27h.83v3.67c0,1,.38,1.67,1.46,1.67s1.9-1.07,1.9-2.35v-3Z" transform="translate(-26.86 -21.99)" style="fill:#242265"/><path d="M147,94.1a.6.6,0,0,1,.62-.63.6.6,0,0,1,.63.63.63.63,0,0,1-1.25,0Zm.2,2.17h.83v6h-.83Z" transform="translate(-26.86 -21.99)" style="fill:#242265"/><path d="M149.94,92.53h.83l0,9.75H150Z" transform="translate(-26.86 -21.99)" style="fill:#242265"/><path d="M153.08,100.58V97l-1.17,0v-.68h1.17v-2h.83v2h2.15V97h-2.15v3.58c0,.76.32,1,.85,1a2,2,0,0,0,1.18-.41l.37.63a2.71,2.71,0,0,1-1.64.57C153.7,102.39,153.08,101.82,153.08,100.58Z" transform="translate(-26.86 -21.99)" style="fill:#242265"/><path d="M167.84,96.27v0l-2.1,6h-.26l-1.86-4.16-1.89,4.16h-.25l-2.11-6v0h.85l1.25,3.6c.08.26.15.48.23.78a6.51,6.51,0,0,1,.3-.75l1.51-3.3h.2l1.5,3.29a6,6,0,0,1,.31.76c.08-.29.15-.53.24-.79L167,96.27Z" transform="translate(-26.86 -21.99)" style="fill:#242265"/><path d="M168.74,94.1a.6.6,0,0,1,.62-.63.6.6,0,0,1,.63.63.63.63,0,0,1-1.25,0Zm.2,2.17h.83v6h-.83Z" transform="translate(-26.86 -21.99)" style="fill:#242265"/><path d="M172.07,100.58V97l-1.17,0v-.68h1.17v-2h.83v2H175V97H172.9v3.58c0,.76.31,1,.84,1a2,2,0,0,0,1.18-.41l.37.63a2.71,2.71,0,0,1-1.63.57C172.68,102.39,172.07,101.82,172.07,100.58Z" transform="translate(-26.86 -21.99)" style="fill:#242265"/><path d="M181.34,98.61v3.67h-.83v-3.7c0-1-.41-1.66-1.42-1.66-1.28,0-2,1.09-2,2.4v3h-.83V92.53h.83v3.89c0,.3,0,.58,0,.94a2.22,2.22,0,0,1,2.08-1.21C180.64,96.15,181.34,97.07,181.34,98.61Z" transform="translate(-26.86 -21.99)" style="fill:#242265"/><path d="M191,96.27v0l-3.7,9h-.87v0l1.33-3.11-2.62-5.83v0H186l1.72,3.85c.15.35.3.69.44,1.11.13-.42.27-.77.41-1.11l1.56-3.85Z" transform="translate(-26.86 -21.99)" style="fill:#242265"/><path d="M192.3,93h5.56v.81H193.2v3.52h4.18v.82H193.2v4.09h-.9Z" transform="translate(-26.86 -21.99)" style="fill:#242265"/><path d="M199,94.1a.6.6,0,0,1,.62-.63.6.6,0,0,1,.63.63.63.63,0,0,1-1.25,0Zm.2,2.17H200v6h-.83Z" transform="translate(-26.86 -21.99)" style="fill:#242265"/><path d="M201.86,92.53h.83l0,9.75h-.83Z" transform="translate(-26.86 -21.99)" style="fill:#242265"/><path d="M209.84,99a4.08,4.08,0,0,1,0,.59H205a2.21,2.21,0,0,0,2.24,2,2.32,2.32,0,0,0,1.84-.74l.47.6a3.17,3.17,0,0,1-2.29.91,3.16,3.16,0,0,1-.07-6.31A2.6,2.6,0,0,1,209.84,99ZM205,98.88h4a1.79,1.79,0,0,0-1.86-2A2.14,2.14,0,0,0,205,98.88Z" transform="translate(-26.86 -21.99)" style="fill:#242265"/><path d="M210.72,101.72l.42-.65a2.92,2.92,0,0,0,1.77.54c.74,0,1.21-.36,1.21-.91s-.66-.88-1.38-1.17c-1-.38-1.8-.84-1.8-1.8s.93-1.53,1.94-1.53a3.3,3.3,0,0,1,1.83.55l-.37.59a2.92,2.92,0,0,0-1.41-.38c-.62,0-1.16.21-1.16.77s.56.81,1.27,1.08c1.08.41,1.91.89,1.91,1.89s-.85,1.69-2,1.69A3.74,3.74,0,0,1,210.72,101.72Z" transform="translate(-26.86 -21.99)" style="fill:#242265"/><path d="M219.62,97h-1.25v-.73h1.25V94.54a1.93,1.93,0,0,1,1.95-2.17,2.42,2.42,0,0,1,1.55.53l-.38.6a1.78,1.78,0,0,0-1.08-.36c-.73,0-1.21.48-1.21,1.4v1.73h2V97h-2v5.28h-.83Z" transform="translate(-26.86 -21.99)" style="fill:#242265"/><path d="M223,99.28a3.11,3.11,0,1,1,3.1,3.15A3,3,0,0,1,223,99.28Zm5.38,0a2.27,2.27,0,1,0-2.28,2.38A2.23,2.23,0,0,0,228.35,99.28Z" transform="translate(-26.86 -21.99)" style="fill:#242265"/><path d="M234.15,96.35l-.24.74a2.09,2.09,0,0,0-.81-.15,1.64,1.64,0,0,0-1.64,1.86v3.48h-.83v-6h.63l.16.88a1.87,1.87,0,0,1,1.75-1A2.41,2.41,0,0,1,234.15,96.35Z" transform="translate(-26.86 -21.99)" style="fill:#242265"/><path d="M243.05,98.61v3.67h-.83v-3.7c0-1-.4-1.66-1.41-1.66-1.28,0-2,1.09-2,2.4v3H238V92.53h.82v3.89c0,.3,0,.58,0,.94a2.22,2.22,0,0,1,2.08-1.21C242.36,96.15,243.05,97.07,243.05,98.61Z" transform="translate(-26.86 -21.99)" style="fill:#242265"/><path d="M245.26,100.58V97l-1.17,0v-.68h1.17v-2h.83v2h2.15V97h-2.15v3.58c0,.76.32,1,.85,1a2,2,0,0,0,1.18-.41l.37.63a2.71,2.71,0,0,1-1.63.57C245.88,102.39,245.26,101.82,245.26,100.58Z" transform="translate(-26.86 -21.99)" style="fill:#242265"/><path d="M258.31,98.51v3.77h-.83V98.47c0-1-.48-1.55-1.33-1.55a2,2,0,0,0-1.83,2.23v3.13h-.83V98.46c0-.83-.42-1.54-1.33-1.54a2,2,0,0,0-1.85,2.23v3.13h-.83v-6h.62l.19,1a2.15,2.15,0,0,1,2-1.15,1.86,1.86,0,0,1,1.86,1.21,2.24,2.24,0,0,1,2.1-1.21C257.58,96.15,258.31,97.06,258.31,98.51Z" transform="translate(-26.86 -21.99)" style="fill:#242265"/><path d="M260.1,92.53h.83l0,9.75h-.83Z" transform="translate(-26.86 -21.99)" style="fill:#242265"/></svg>